<?xml version="1.0" encoding="utf-8" ?><svg xmlns="http://www.w3.org/2000/svg" xmlns:xlink="http://www.w3.org/1999/xlink" width="358" height="651" viewBox="0 0 358 651"><defs><linearGradient id="gradient_0" gradientUnits="userSpaceOnUse" x1="268.16928" y1="236.69548" x2="57.267765" y2="473.0206"><stop offset="0" stop-color="#F3DA0E"/><stop offset="1" stop-color="#FA4134"/></linearGradient></defs><path fill="url(#gradient_0)" d="M128.944 52.2311C133.182 49.987 136.057 48.8283 140.595 47.2443C137.655 55.1417 135.178 61.1959 133.064 69.4586C123.532 106.92 127.026 146.509 142.973 181.723C153.115 203.906 166.977 221.47 185.483 237.231C193.442 244.426 202.595 250.467 211.529 256.38C220.637 262.318 229.684 268.349 238.667 274.473C284.209 305.8 325.162 340.127 341.478 395.035C347.765 416.193 350.775 435.642 348.84 457.792C346.448 494.924 333.094 530.513 310.467 560.055C306.386 565.455 300.35 572.986 295.453 577.545C280.478 594.191 264.255 606.49 244.888 617.819C239.662 620.876 233.241 624.48 227.651 626.725C226.888 624.979 232.2 619.687 233.478 618.22C258.224 589.807 274.271 554.85 271.234 516.471C268.934 523.652 263.243 535.203 259.529 541.626C259.008 542.868 258.495 544.113 257.989 545.36C257.444 545.76 257.199 545.866 256.918 546.486C251.37 554.416 246.135 561.765 239.061 568.497C238.283 569.238 235.729 571.795 234.931 572.322C233.056 572.174 223.501 579.194 220.918 580.843C207.433 589.452 181.44 598.771 165.578 598.808C165.15 598.539 163.41 598.42 162.787 598.349C160.864 593.991 154.002 588.155 150.61 584.522C147.523 581.217 144.978 585.08 145.229 577.741C144.508 576.86 145.114 577.971 143.752 577.416L143.696 576.959C144.324 576.784 144.381 576.72 144.937 576.346L145.093 576.24C147.929 575.522 152.611 575.281 155.923 574.563C168.824 571.712 180.893 565.922 191.19 557.645C209.51 542.814 220.755 519.736 222.9 496.539C225.962 463.426 214.704 439.996 194.605 415.231C194.27 414.977 188.444 408.748 187.922 408.127C184.981 404.63 181.064 401.684 178.148 398.699C174.958 395.433 165.552 389.372 163.316 386.782C159.262 384.415 153.751 379.918 149.101 376.993C108.379 351.382 62.9306 324.889 36.1273 283.746C15.4271 252.253 8.31039 213.743 16.3886 176.934C23.4886 143.395 42.7431 114.891 67.9975 92.2383C74.9502 86.0017 82.7611 79.5822 90.5857 74.4921C90.8993 74.1968 94.2936 71.7903 94.8662 71.4034C104.248 65.0631 118.541 56.2877 128.944 52.2311Z"/><defs><linearGradient id="gradient_1" gradientUnits="userSpaceOnUse" x1="269.7211" y1="219.7261" x2="168.17252" y2="307.2478"><stop offset="0" stop-color="#84BD42"/><stop offset="1" stop-color="#B4CD45"/></linearGradient></defs><path fill="url(#gradient_1)" d="M128.944 52.2311C133.182 49.987 136.057 48.8283 140.595 47.2443C137.655 55.1417 135.178 61.1959 133.064 69.4586C123.532 106.92 127.026 146.509 142.973 181.723C153.115 203.906 166.977 221.47 185.483 237.231C193.442 244.426 202.595 250.467 211.529 256.38C220.637 262.318 229.684 268.349 238.667 274.473C284.209 305.8 325.162 340.127 341.478 395.035C347.765 416.193 350.775 435.642 348.84 457.792C348.724 456.468 348.833 454.392 348.864 453.008C347.684 451.479 346.767 448.612 346.058 446.704C346.033 446.414 345.996 446.125 345.948 445.838C344.239 436.107 336.599 420.893 331.803 412.163C304.779 362.969 255.416 330.635 207.944 303.367C184.598 290.132 162.223 277.808 139.948 262.532C106.172 239.371 73.1469 206.318 64.6767 164.707C60.3798 143.599 67.63 115.194 77.6241 96.3034C80.3899 91.1097 83.4281 86.0655 86.7258 81.1921C87.8303 79.5432 89.5461 77.0074 90.7313 75.3116C90.6748 74.9938 90.6263 74.7207 90.5857 74.4921C90.8993 74.1968 94.2936 71.7903 94.8662 71.4034C104.248 65.0631 118.541 56.2877 128.944 52.2311Z"/><path fill="#448E3F" d="M128.944 52.2311C133.182 49.987 136.057 48.8283 140.595 47.2443C137.655 55.1417 135.178 61.1959 133.064 69.4586C123.532 106.92 127.026 146.509 142.973 181.723C153.115 203.906 166.977 221.47 185.483 237.231L184.499 238.056C183.494 238.016 180.482 236.158 179.537 235.562C151.864 218.12 123.264 196.417 107.98 166.724C94.8047 141.584 93.9704 111.773 105.719 85.9358C108.369 80.1499 112.647 73.3143 116.374 68.0799C117.982 65.8047 119.657 63.5782 121.398 61.4034C122.699 59.8101 128.584 53.714 128.944 52.2311Z"/><defs><linearGradient id="gradient_2" gradientUnits="userSpaceOnUse" x1="144.01437" y1="583.04028" x2="247.20757" y2="455.60257"><stop offset="0" stop-color="#B51113"/><stop offset="1" stop-color="#ED451E"/></linearGradient></defs><path fill="url(#gradient_2)" d="M194.605 415.231C197.965 414.034 206.007 421.559 208.737 423.884C228.04 440.326 244.491 462.01 252.812 486.112C256.098 495.775 258.075 505.834 258.692 516.021C258.885 519.42 258.573 540.105 259.114 541.531L259.529 541.626C259.008 542.868 258.495 544.113 257.989 545.36C257.444 545.76 257.199 545.866 256.918 546.486C251.37 554.416 246.135 561.765 239.061 568.497C238.283 569.238 235.729 571.795 234.931 572.322C233.056 572.174 223.501 579.194 220.918 580.843C207.433 589.452 181.44 598.771 165.578 598.808C165.15 598.539 163.41 598.42 162.787 598.349C160.864 593.991 154.002 588.155 150.61 584.522C147.523 581.217 144.978 585.08 145.229 577.741C144.508 576.86 145.114 577.971 143.752 577.416L143.696 576.959C144.324 576.784 144.381 576.72 144.937 576.346L145.093 576.24C147.929 575.522 152.611 575.281 155.923 574.563C168.824 571.712 180.893 565.922 191.19 557.645C209.51 542.814 220.755 519.736 222.9 496.539C225.962 463.426 214.704 439.996 194.605 415.231Z"/><path fill="#FBBB1D" d="M295.453 577.545C294.627 575.688 298.601 569.207 299.535 567.218C317.759 528.389 319.185 483.798 306.61 442.99C296.339 409.658 277.59 381.215 254.313 355.382C247.275 347.536 239.866 340.031 232.111 332.892C229.504 330.465 221.994 324.54 220.365 322.351L220.564 322.087C223.777 324.417 227.5 326.11 230.979 328.083C266.459 348.196 298.232 369.858 322.354 403.753C328.865 412.965 334.622 422.686 339.571 432.823C341.347 436.383 343.862 443.968 346.058 446.704C346.767 448.612 347.684 451.479 348.864 453.008C348.833 454.392 348.724 456.468 348.84 457.792C346.448 494.924 333.094 530.513 310.467 560.055C306.386 565.455 300.35 572.986 295.453 577.545Z"/><path fill="#CA3212" d="M163.316 386.782C163.434 386.412 163.505 386.174 163.651 385.816C165.107 385.403 166.584 386.522 167.931 387.287C210.798 411.649 253.811 440.738 267.512 491.027C269.206 497.246 272.393 510.25 271.234 516.471C268.934 523.652 263.243 535.203 259.529 541.626L259.114 541.531C258.573 540.105 258.885 519.42 258.692 516.021C258.075 505.834 256.098 495.775 252.812 486.112C244.491 462.01 228.04 440.326 208.737 423.884C206.007 421.559 197.965 414.034 194.605 415.231C194.27 414.977 188.444 408.748 187.922 408.127C184.981 404.63 181.064 401.684 178.148 398.699C174.958 395.433 165.552 389.372 163.316 386.782Z"/><defs><linearGradient id="gradient_3" gradientUnits="userSpaceOnUse" x1="54.200516" y1="610.86047" x2="200.85921" y2="454.62906"><stop offset="0" stop-color="#CF1E2A"/><stop offset="1" stop-color="#FC6524"/></linearGradient></defs><path fill="url(#gradient_3)" d="M227.651 626.725C225.027 628.383 215.619 632.118 212.38 633.281C171.974 647.789 123.634 648.175 84.4526 629.753C50.6002 613.837 21.5384 584.868 9.03969 549.301C-0.590605 521.897 -0.961299 490.376 11.6416 463.878C23.6554 438.862 45.1475 419.666 71.3594 410.54C95.2956 402.036 121.627 403.363 144.587 414.231C182.268 432.37 203.886 476.428 184.769 515.647C177.518 530.749 164.465 542.275 148.58 547.604C136.649 551.666 121.81 551.626 110.356 545.987C98.7689 540.155 90.5578 532.356 86.417 519.724C83.3468 510.647 84.0694 500.716 88.4211 492.18C92.1313 484.938 97.2154 479.995 105.065 477.5C112.377 475.13 120.333 475.776 127.166 479.296C128.328 479.896 129.46 480.554 130.556 481.268C123.888 480.587 117.638 480.922 112.298 485.523C98.5652 497.358 106.939 519.684 124.563 520.884C140.656 521.979 152.634 509.828 153.51 494.293C153.957 485.138 150.716 476.185 144.512 469.436C137.211 461.404 127.018 456.6 116.175 456.081C103.399 455.528 90.9257 460.071 81.4995 468.711C70.7426 478.61 64.3839 492.394 63.8351 507.001C63.2632 523.528 69.2328 539.613 80.4487 551.768C97.4393 570.306 120.483 577.439 145.093 576.24L144.937 576.346C144.381 576.72 144.324 576.784 143.696 576.959L143.752 577.416C145.114 577.971 144.508 576.86 145.229 577.741C144.978 585.08 147.523 581.217 150.61 584.522C154.002 588.155 160.864 593.991 162.787 598.349C163.41 598.42 165.15 598.539 165.578 598.808C181.44 598.771 207.433 589.452 220.918 580.843C223.501 579.194 233.056 572.174 234.931 572.322C235.729 571.795 238.283 569.238 239.061 568.497C246.135 561.765 251.37 554.416 256.918 546.486C257.199 545.866 257.444 545.76 257.989 545.36C258.495 544.113 259.008 542.868 259.529 541.626C263.243 535.203 268.934 523.652 271.234 516.471C274.271 554.85 258.224 589.807 233.478 618.22C232.2 619.687 226.888 624.979 227.651 626.725Z"/><defs><linearGradient id="gradient_4" gradientUnits="userSpaceOnUse" x1="80.700745" y1="567.08484" x2="170.55978" y2="468.09915"><stop offset="0" stop-color="#AA090E"/><stop offset="1" stop-color="#D9311B"/></linearGradient></defs><path fill="url(#gradient_4)" d="M38.6883 504.672C40.7609 500.148 42.4591 495.175 44.5231 490.636C48.8528 481.113 55.3362 472.565 62.9171 465.401C81.8337 447.389 108.4 439.827 133.969 445.177C136.608 445.755 139.217 446.461 141.787 447.294C143.939 448.007 150.178 450.756 151.931 450.702C157.593 454.714 163.2 462.551 166.233 468.353C185.741 505.664 157.335 549.22 115.094 545.398C113.797 545.281 111.49 545.418 110.356 545.987C98.7689 540.155 90.5578 532.356 86.417 519.724C83.3468 510.647 84.0694 500.716 88.4211 492.18C92.1313 484.938 97.2154 479.995 105.065 477.5C112.377 475.13 120.333 475.776 127.166 479.296C128.328 479.896 129.46 480.554 130.556 481.268C123.888 480.587 117.638 480.922 112.298 485.523C98.5652 497.358 106.939 519.684 124.563 520.884C140.656 521.979 152.634 509.828 153.51 494.293C153.957 485.138 150.716 476.185 144.512 469.436C137.211 461.404 127.018 456.6 116.175 456.081C103.399 455.528 90.9257 460.071 81.4995 468.711C70.7426 478.61 64.3839 492.394 63.8351 507.001C63.2632 523.528 69.2328 539.613 80.4487 551.768C97.4393 570.306 120.483 577.439 145.093 576.24L144.937 576.346C144.381 576.72 144.324 576.784 143.696 576.959L143.752 577.416C145.114 577.971 144.508 576.86 145.229 577.741C144.978 585.08 147.523 581.217 150.61 584.522C154.002 588.155 160.864 593.991 162.787 598.349C163.41 598.42 165.15 598.539 165.578 598.808C116.12 602.26 67.393 567.104 46.2477 523.593C43.0093 516.93 40.4372 511.996 38.6883 504.672Z"/><defs><linearGradient id="gradient_5" gradientUnits="userSpaceOnUse" x1="75.217186" y1="580.50311" x2="180.71803" y2="482.94513"><stop offset="0" stop-color="#7F0100"/><stop offset="1" stop-color="#C21E18"/></linearGradient></defs><path fill="url(#gradient_5)" d="M234.931 572.322C232.68 574.824 229.288 577.634 226.58 579.751C183.101 613.758 121.128 615.327 77.3013 581.324C58.1187 566.386 43.9444 545.96 36.6668 522.765C35.3696 518.697 33.5163 511.93 33.0049 507.882C31.4624 495.671 44.4649 474.155 51.4403 464.758C62.4273 449.958 82.0683 438.641 100.452 436.619C120.051 434.462 136.329 438.481 151.931 450.702C150.178 450.756 143.939 448.007 141.787 447.294C139.217 446.461 136.608 445.755 133.969 445.177C108.4 439.827 81.8337 447.389 62.9171 465.401C55.3362 472.565 48.8528 481.113 44.5231 490.636C42.4591 495.175 40.7609 500.148 38.6883 504.672C40.4372 511.996 43.0093 516.93 46.2477 523.593C67.393 567.104 116.12 602.26 165.578 598.808C181.44 598.771 207.433 589.452 220.918 580.843C223.501 579.194 233.056 572.174 234.931 572.322Z"/><path fill="#CA3212" d="M256.918 546.486C257.199 545.866 257.444 545.76 257.989 545.36C257.894 553.093 253.644 570.949 250.389 577.941L250.151 578.044C250.701 574.277 252.436 569.714 253.525 566.031C255.008 561.021 256.055 555.893 256.655 550.703C256.76 549.756 257.093 547.333 256.918 546.486Z"/><defs><linearGradient id="gradient_6" gradientUnits="userSpaceOnUse" x1="182.64145" y1="97.423561" x2="254.32921" y2="5.5549955"><stop offset="0" stop-color="#3E9E5B"/><stop offset="1" stop-color="#07636C"/></linearGradient></defs><path fill="url(#gradient_6)" d="M258.833 9.62405C264.758 8.69358 273.31 6.1462 278.557 3.12054C278.567 6.79032 277.071 19.8242 276.014 23.1102C268.213 61.843 243.062 99.4124 201.869 106.41C200.036 106.721 197.793 107.124 195.948 107.217C194.098 107.552 190.487 107.583 188.506 107.66C177.161 108.103 166.661 107.477 155.695 104.167C159.385 96.1704 162.666 89.7076 168.277 82.79C182.434 67.0367 196.219 55.9673 215.74 47.1386C221.456 44.5535 227.54 42.7848 233.144 40.1446C225.197 41.2439 218.143 42.3311 210.448 44.8674C205.644 46.4508 201.153 48.3415 196.428 50.099C196.014 50.4726 194.064 51.383 193.497 51.6575C172.145 61.9971 153.651 78.6273 143.894 100.561C141.778 105.315 140.165 109.866 138.328 114.781C134.175 77.7906 141.598 41.8618 177.185 23.0625C197.53 11.0347 234.412 14.3028 258.833 9.62405Z"/><path fill="#448E3F" d="M177.185 23.0625C178.426 23.4525 179.009 22.7963 180.236 22.2774C183.618 20.848 188.208 18.6823 191.931 18.8344C193.01 17.7956 192.842 17.6308 194.019 17.612L193.108 18.2129C193.292 22.3446 205.39 27.4805 207.783 29.8326C210.446 32.4497 212.968 36.013 215.935 38.7392L215.573 40.4279C216.118 40.6253 216.683 40.5656 217.272 40.561C217.146 40.7498 217.019 40.9116 216.879 41.0902C216.837 41.1444 216.796 41.2003 216.754 41.2548C213.683 45.232 199.645 45.744 196.428 50.099C196.014 50.4726 194.064 51.383 193.497 51.6575C172.145 61.9971 153.651 78.6273 143.894 100.561C141.778 105.315 140.165 109.866 138.328 114.781C134.175 77.7906 141.598 41.8618 177.185 23.0625Z"/><path fill="#448E3F" d="M168.277 82.79C171.493 84.7863 172.779 86.7504 175.499 88.8386C180.745 92.866 185.173 97.36 190.188 101.643C192.705 103.792 191.181 107.176 195.948 107.217C194.098 107.552 190.487 107.583 188.506 107.66C177.161 108.103 166.661 107.477 155.695 104.167C159.385 96.1704 162.666 89.7076 168.277 82.79Z"/><path fill="#05616D" d="M258.833 9.62405C264.758 8.69358 273.31 6.1462 278.557 3.12054C278.567 6.79032 277.071 19.8242 276.014 23.1102C272.042 25.4626 274.344 20.59 273.003 20.0864C269.001 18.5839 265.355 16.9503 262.281 13.8664C262.644 13.4953 262.807 13.411 262.933 12.9134C261.585 11.9393 259.611 13.2441 257.977 11.6036C257.964 10.614 258.223 10.3968 258.833 9.62405Z"/></svg>
